<svg xmlns="http://www.w3.org/2000/svg" xmlns:xlink="http://www.w3.org/1999/xlink" viewBox="0 0 64 64" fill="#474747">
  <path d="M12.796875 1.453125C12.601563 1.476563 12.398438 1.523438 12.199219 1.601563C11.398438 1.898438 11 2.601563 11 3.398438L11 7.601563L9.699219 6.300781C9.300781 5.902344 8.699219 5.902344 8.300781 6.300781C7.902344 6.699219 7.902344 7.300781 8.300781 7.699219L9.601563 9L5.398438 9C4.601563 9 3.898438 9.5 3.601563 10.199219C3.300781 10.898438 3.398438 11.800781 4 12.402344L9.398438 17.800781C7.199219 21.800781 6 26.398438 6 31C6 40 10.5 48.101563 17.300781 53L14.199219 57.5C13.898438 58 14 58.601563 14.402344 58.902344C14.601563 59 14.800781 59.097656 15 59.097656C15.300781 59.097656 15.601563 59 15.800781 58.699219L19 54.199219C23.101563 56.699219 27.898438 58.097656 33 58.097656C38.101563 58.097656 42.898438 56.699219 47 54.199219L50.199219 58.699219C50.398438 59 50.699219 59.097656 51 59.097656C51.199219 59.097656 51.398438 59 51.597656 58.902344C52.097656 58.601563 52.199219 58 51.800781 57.5L48.699219 53C55.5 48.101563 60 40 60 31C60 16.101563 47.898438 4 33 4C28.398438 4 23.800781 5.199219 19.800781 7.398438L14.402344 2C13.949219 1.550781 13.386719 1.382813 12.796875 1.453125 Z M 13 3.398438L19.402344 9.800781C19.800781 10.199219 20 10.699219 20 11.199219L20 16.5L13 9.5 Z M 33 6C46.800781 6 58 17.199219 58 31C58 44.800781 46.800781 56 33 56C19.199219 56 8 44.800781 8 31C8 26.898438 9 22.902344 10.902344 19.300781C11.601563 19.800781 12.398438 20 13.199219 20L20.5 20L32.199219 31.699219C32.398438 31.898438 32.699219 32 32.902344 32C33.101563 32 33.398438 31.898438 33.597656 31.699219C34 31.300781 34 30.699219 33.597656 30.300781L22 18.597656L22 11.300781C22 10.5 21.699219 9.699219 21.300781 9C24.902344 7 28.898438 6 33 6 Z M 33 10C29.699219 10 26.5 10.800781 23.5 12.199219C23 12.398438 22.800781 13 23.097656 13.5C23.300781 14 23.902344 14.199219 24.402344 13.902344C27.101563 12.601563 29.902344 11.902344 32.902344 11.902344C43.402344 11.902344 51.902344 20.402344 51.902344 30.902344C51.902344 41.402344 43.402344 49.902344 32.902344 49.902344C22.402344 49.902344 13.902344 41.402344 13.902344 30.902344C13.902344 29.902344 14 29 14.097656 28C14.199219 27.5 13.800781 26.902344 13.300781 26.902344C12.800781 26.800781 12.199219 27.199219 12.199219 27.699219C12 28.699219 12 29.800781 12 30.800781C12 42.402344 21.398438 51.800781 33 51.800781C44.601563 51.800781 54 42.402344 54 30.800781C54 19.199219 44.601563 10 33 10 Z M 5.398438 11L11.597656 11L18.597656 18L13.300781 18C12.800781 18 12.300781 17.800781 11.902344 17.402344 Z M 33 17C30.800781 17 28.5 17.5 26.5 18.597656C26 18.898438 25.800781 19.5 26.097656 19.902344C26.398438 20.402344 27 20.601563 27.402344 20.300781C29.101563 19.402344 31 18.902344 32.902344 18.902344C39.601563 19 45 24.398438 45 31C45 35.5 42.5 39.597656 38.5 41.597656C38 41.898438 37.800781 42.5 38.097656 42.902344C38.300781 43.199219 38.601563 43.402344 39 43.402344C39.199219 43.402344 39.300781 43.402344 39.5 43.300781C44.101563 41 47 36.199219 47 31C47 23.300781 40.699219 17 33 17 Z M 15.214844 21.121094C14.824219 21.113281 14.449219 21.300781 14.300781 21.597656C14 22.300781 13.601563 23 13.402344 23.699219C13.101563 24.199219 13.402344 24.699219 13.902344 24.902344C14 24.902344 14.101563 25 14.300781 25C14.699219 25 15.097656 24.800781 15.199219 24.402344C15.398438 23.800781 15.699219 23.101563 16 22.5C16.199219 22 16 21.398438 15.597656 21.199219C15.472656 21.148438 15.34375 21.125 15.214844 21.121094 Z M 21.8125 23.464844C21.417969 23.417969 21.027344 23.625 20.800781 24C20.601563 24.5 20.800781 25.101563 21.199219 25.402344L22.902344 26.402344C23.101563 26.5 23.199219 26.5 23.402344 26.5C23.699219 26.5 24.101563 26.300781 24.300781 26C24.601563 25.5 24.402344 24.898438 23.902344 24.597656L22.199219 23.597656C22.074219 23.523438 21.945313 23.480469 21.8125 23.464844 Z M 33 24C32.601563 24 32.199219 24 31.800781 24.097656C31.300781 24.199219 30.898438 24.699219 31 25.300781C31.101563 25.800781 31.597656 26.199219 32.199219 26.097656C32.5 26.097656 32.800781 26 33 26C35.800781 26 38 28.199219 38 31C38 33.800781 35.800781 36 33 36C30.199219 36 28 33.800781 28 31C28 30.699219 28 30.398438 28.097656 30.199219C28.199219 29.699219 27.800781 29.101563 27.300781 29C26.699219 28.898438 26.199219 29.300781 26.097656 29.800781C26 30.199219 26 30.601563 26 31C26 34.898438 29.101563 38 33 38C36.898438 38 40 34.898438 40 31C40 27.101563 36.898438 24 33 24 Z M 20 30C19.398438 30 19 30.398438 19 31C19 31.601563 19.398438 32 20 32L22 32C22.601563 32 23 31.601563 23 31C23 30.398438 22.601563 30 22 30 Z M 23.34375 35.507813C23.21875 35.519531 23.101563 35.550781 23 35.597656L21.300781 36.597656C20.800781 36.898438 20.699219 37.5 20.902344 38C21.101563 38.300781 21.402344 38.5 21.800781 38.5C22 38.5 22.101563 38.5 22.300781 38.402344L24 37.402344C24.5 37.101563 24.601563 36.5 24.402344 36C24.175781 35.625 23.726563 35.476563 23.34375 35.507813 Z M 27.613281 39.464844C27.21875 39.417969 26.824219 39.625 26.597656 40L25.597656 41.699219C25.398438 42.199219 25.5 42.800781 26 43.097656C26.199219 43.199219 26.300781 43.199219 26.5 43.199219C26.800781 43.199219 27.199219 43 27.402344 42.699219L28.402344 41C28.699219 40.5 28.5 39.898438 28 39.597656C27.875 39.523438 27.746094 39.480469 27.613281 39.464844 Z M 33 41C32.398438 41 32 41.398438 32 42L32 44C32 44.601563 32.398438 45 33 45C33.601563 45 34 44.601563 34 44L34 42C34 41.398438 33.601563 41 33 41Z" fill="#474747" />
</svg>