<svg xmlns="http://www.w3.org/2000/svg" xmlns:xlink="http://www.w3.org/1999/xlink" viewBox="0 0 50 50" fill="#474747">
  <path d="M33.375 0C30.539063 0.191406 27.503906 1.878906 25.625 4.15625C23.980469 6.160156 22.601563 9.101563 23.125 12.15625C22.65625 12.011719 22.230469 11.996094 21.71875 11.8125C20.324219 11.316406 18.730469 10.78125 16.75 10.78125C12.816406 10.78125 8.789063 13.121094 6.25 17.03125C2.554688 22.710938 3.296875 32.707031 8.90625 41.25C9.894531 42.75 11.046875 44.386719 12.46875 45.6875C13.890625 46.988281 15.609375 47.980469 17.625 48C19.347656 48.019531 20.546875 47.445313 21.625 46.96875C22.703125 46.492188 23.707031 46.070313 25.59375 46.0625C25.605469 46.0625 25.613281 46.0625 25.625 46.0625C27.503906 46.046875 28.476563 46.460938 29.53125 46.9375C30.585938 47.414063 31.773438 48.015625 33.5 48C35.554688 47.984375 37.300781 46.859375 38.75 45.46875C40.199219 44.078125 41.390625 42.371094 42.375 40.875C43.785156 38.726563 44.351563 37.554688 45.4375 35.15625C45.550781 34.90625 45.554688 34.617188 45.445313 34.363281C45.339844 34.109375 45.132813 33.910156 44.875 33.8125C41.320313 32.46875 39.292969 29.324219 39 26C38.707031 22.675781 40.113281 19.253906 43.65625 17.3125C43.917969 17.171875 44.101563 16.925781 44.164063 16.636719C44.222656 16.347656 44.152344 16.042969 43.96875 15.8125C41.425781 12.652344 37.847656 10.78125 34.34375 10.78125C32.109375 10.78125 30.46875 11.308594 29.125 11.8125C28.902344 11.898438 28.738281 11.890625 28.53125 11.96875C29.894531 11.25 31.097656 10.253906 32 9.09375C33.640625 6.988281 34.90625 3.992188 34.4375 0.84375C34.359375 0.328125 33.894531 -0.0390625 33.375 0 Z M 32.3125 2.375C32.246094 4.394531 31.554688 6.371094 30.40625 7.84375C29.203125 9.390625 27.179688 10.460938 25.21875 10.78125C25.253906 8.839844 26.019531 6.828125 27.1875 5.40625C28.414063 3.921875 30.445313 2.851563 32.3125 2.375 Z M 16.75 12.78125C18.363281 12.78125 19.65625 13.199219 21.03125 13.6875C22.40625 14.175781 23.855469 14.75 25.5625 14.75C27.230469 14.75 28.550781 14.171875 29.84375 13.6875C31.136719 13.203125 32.425781 12.78125 34.34375 12.78125C36.847656 12.78125 39.554688 14.082031 41.6875 16.34375C38.273438 18.753906 36.675781 22.511719 37 26.15625C37.324219 29.839844 39.542969 33.335938 43.1875 35.15625C42.398438 36.875 41.878906 38.011719 40.71875 39.78125C39.761719 41.238281 38.625 42.832031 37.375 44.03125C36.125 45.230469 34.800781 45.988281 33.46875 46C32.183594 46.011719 31.453125 45.628906 30.34375 45.125C29.234375 44.621094 27.800781 44.042969 25.59375 44.0625C23.390625 44.074219 21.9375 44.628906 20.8125 45.125C19.6875 45.621094 18.949219 46.011719 17.65625 46C16.289063 45.988281 15.019531 45.324219 13.8125 44.21875C12.605469 43.113281 11.515625 41.605469 10.5625 40.15625C5.3125 32.15625 4.890625 22.757813 7.90625 18.125C10.117188 14.722656 13.628906 12.78125 16.75 12.78125Z" fill="#474747" />
</svg>