<svg xmlns="http://www.w3.org/2000/svg" xmlns:xlink="http://www.w3.org/1999/xlink" viewBox="0 0 50 50" fill="#474747">
  <path d="M0 3L0 33L17 33L15 31L2 31L2 5L48 5L48 31L29 31L31 33L50 33L50 3 Z M 3 6L3 9L5 9L5 6 Z M 9 6L9 9L11 9L11 6 Z M 15 6L15 9L17 9L17 6 Z M 21 6L21 9L23 9L23 6 Z M 27 6L27 9L29 9L29 6 Z M 33 6L33 9L35 9L35 6 Z M 39 6L39 9L41 9L41 6 Z M 45 6L45 9L47 9L47 6 Z M 11.875 16.59375C11.371094 16.65625 10.996094 17.085938 11 17.59375L11 21.90625C11 23.742188 11.703125 25.519531 13.09375 26.8125L13.125 26.84375L20.25 33.9375L18.03125 36.15625C16.703125 36.113281 15.386719 36.519531 14.40625 37.5L12.40625 39.5C10.4375 41.46875 10.4375 44.625 12.40625 46.59375C14.375 48.5625 17.53125 48.5625 19.5 46.59375L21.5 44.59375C22.480469 43.613281 22.886719 42.296875 22.84375 40.96875L25.0625 38.75L27.15625 40.84375C27.101563 42.183594 27.511719 43.511719 28.5 44.5L30.5 46.5C32.46875 48.46875 35.625 48.46875 37.59375 46.5C39.5625 44.53125 39.5625 41.375 37.59375 39.40625L35.59375 37.40625C34.621094 36.433594 33.316406 36.027344 32 36.0625L12.71875 16.90625C12.503906 16.675781 12.191406 16.558594 11.875 16.59375 Z M 13 20.03125L30.78125 37.71875C31.011719 37.949219 31.335938 38.054688 31.65625 38C32.527344 37.855469 33.523438 38.148438 34.1875 38.8125L36.1875 40.8125C37.417969 42.042969 37.417969 43.863281 36.1875 45.09375C34.957031 46.324219 33.136719 46.324219 31.90625 45.09375L29.90625 43.09375C29.242188 42.429688 28.949219 41.433594 29.09375 40.5625C29.148438 40.242188 29.042969 39.917969 28.8125 39.6875L14.5 25.40625C14.488281 25.394531 14.480469 25.386719 14.46875 25.375C13.480469 24.46875 13 23.257813 13 21.90625 Z M 3 27L3 30L5 30L5 27 Z M 9 27L9 30L11 30L11 27 Z M 27 27L27 29L28 30L29 30L29 27 Z M 33 27L33 30L35 30L35 27 Z M 39 27L39 30L41 30L41 27 Z M 45 27L45 30L47 30L47 27 Z M 25 32.90625C24.390625 32.90625 23.90625 33.390625 23.90625 34C23.90625 34.609375 24.390625 35.09375 25 35.09375C25.609375 35.09375 26.09375 34.609375 26.09375 34C26.09375 33.390625 25.609375 32.90625 25 32.90625 Z M 21.65625 35.375L23.625 37.34375L21.1875 39.78125C20.957031 40.011719 20.851563 40.335938 20.90625 40.65625C21.050781 41.527344 20.757813 42.523438 20.09375 43.1875L18.09375 45.1875C16.863281 46.417969 15.042969 46.417969 13.8125 45.1875C12.582031 43.957031 12.582031 42.136719 13.8125 40.90625L15.8125 38.90625C16.476563 38.242188 17.472656 37.949219 18.34375 38.09375C18.664063 38.148438 18.988281 38.042969 19.21875 37.8125 Z M 17.5625 39.9375C17.1875 39.9375 16.800781 40.105469 16.5 40.40625L15.5 41.40625C14.898438 42.007813 14.898438 42.898438 15.5 43.5C16.101563 44.101563 16.992188 44.101563 17.59375 43.5L18.59375 42.5C19.09375 42 19.09375 41.007813 18.59375 40.40625C18.292969 40.105469 17.9375 39.9375 17.5625 39.9375 Z M 32.5 40.03125C32.113281 40.03125 31.707031 40.15625 31.40625 40.40625C30.804688 41.007813 30.804688 41.898438 31.40625 42.5L32.40625 43.5C33.007813 44.101563 33.898438 44.101563 34.5 43.5C35.101563 42.898438 35.101563 42.007813 34.5 41.40625L33.5 40.40625C33.25 40.15625 32.886719 40.03125 32.5 40.03125Z" fill="#474747" />
</svg>