<svg xmlns="http://www.w3.org/2000/svg" xmlns:xlink="http://www.w3.org/1999/xlink" viewBox="0 0 50 50" fill="#474747">
  <path d="M4.84375 6C3.269531 6 2 7.320313 2 8.890625L2 43C2 43.550781 2.449219 44 3 44L47 44C47.550781 44 48 43.550781 48 43L48 8.890625C48 7.320313 46.730469 6 45.15625 6 Z M 4.84375 8L45.15625 8C45.621094 8 46 8.375 46 8.890625L46 18L4 18L4 8.890625C4 8.375 4.378906 8 4.84375 8 Z M 19 10L19 16L43 16L43 10 Z M 8 11C6.894531 11 6 11.894531 6 13C6 14.105469 6.894531 15 8 15C9.105469 15 10 14.105469 10 13C10 11.894531 9.105469 11 8 11 Z M 14 11C12.894531 11 12 11.894531 12 13C12 14.105469 12.894531 15 14 15C15.105469 15 16 14.105469 16 13C16 11.894531 15.105469 11 14 11 Z M 21 12L41 12L41 14L21 14 Z M 4 20L46 20L46 42L4 42 Z M 7 23L7 30L29 30L29 23 Z M 32 23L32 39L43 39L43 23 Z M 9 25L27 25L27 28L9 28 Z M 34 25L41 25L41 37L34 37 Z M 7 32L7 39L29 39L29 32 Z M 9 34L27 34L27 37L9 37Z" fill="#474747" />
</svg>