<svg xmlns="http://www.w3.org/2000/svg" xmlns:xlink="http://www.w3.org/1999/xlink" viewBox="0 0 64 64" fill="#474747">
  <path d="M32 1.015625C31.871094 1.042969 31.746094 1.089844 31.632813 1.167969C31.171875 1.476563 31.046875 2.09375 31.355469 2.554688L32.714844 4.585938C32.910156 4.886719 32.9375 5.273438 32.777344 5.59375L31.8125 7.519531C31.332031 8.472656 31.402344 9.625 31.988281 10.515625L32.625 11.472656C32.84375 11.8125 32.84375 12.246094 32.621094 12.578125L32.09375 13.375C31.421875 14.378906 31.421875 15.679688 32.085938 16.6875L32.613281 17.496094C32.839844 17.835938 32.835938 18.269531 32.609375 18.609375L31.363281 20.4375C31.050781 20.894531 31.171875 21.515625 31.625 21.828125C31.800781 21.945313 31.996094 22 32.1875 22C32.507813 22 32.824219 21.847656 33.015625 21.5625L34.261719 19.734375C34.949219 18.726563 34.957031 17.414063 34.285156 16.390625L33.753906 15.589844C33.53125 15.25 33.53125 14.816406 33.753906 14.484375L34.285156 13.6875C34.957031 12.683594 34.957031 11.382813 34.292969 10.375L33.65625 9.414063C33.460938 9.113281 33.441406 8.730469 33.597656 8.414063L34.5625 6.484375C35.042969 5.527344 34.972656 4.375 34.375 3.476563L33.019531 1.445313C32.789063 1.101563 32.382813 0.945313 32 1.015625 Z M 26.003906 8.015625C25.878906 8.042969 25.753906 8.089844 25.636719 8.164063C25.175781 8.46875 25.050781 9.089844 25.355469 9.550781L26.625 11.472656C26.84375 11.8125 26.84375 12.246094 26.621094 12.578125L26.09375 13.375C25.421875 14.378906 25.421875 15.679688 26.085938 16.6875L26.613281 17.496094C26.839844 17.835938 26.835938 18.269531 26.609375 18.609375L25.363281 20.4375C25.050781 20.894531 25.171875 21.515625 25.625 21.828125C25.800781 21.945313 25.996094 22 26.1875 22C26.507813 22 26.824219 21.847656 27.015625 21.5625L28.261719 19.734375C28.949219 18.726563 28.957031 17.414063 28.285156 16.390625L27.753906 15.589844C27.53125 15.25 27.53125 14.816406 27.753906 14.484375L28.285156 13.6875C28.957031 12.683594 28.957031 11.382813 28.292969 10.375L27.023438 8.449219C26.792969 8.105469 26.390625 7.945313 26.003906 8.015625 Z M 40.375 11.046875C39.992188 10.976563 39.585938 11.132813 39.359375 11.476563L38.09375 13.375C37.421875 14.378906 37.417969 15.679688 38.082031 16.6875L38.613281 17.496094C38.839844 17.835938 38.835938 18.269531 38.609375 18.609375L37.359375 20.4375C37.050781 20.890625 37.171875 21.511719 37.625 21.824219C37.800781 21.941406 37.996094 22 38.1875 22C38.507813 22 38.824219 21.847656 39.015625 21.5625L40.261719 19.734375C40.949219 18.726563 40.957031 17.414063 40.285156 16.390625L39.753906 15.589844C39.53125 15.25 39.53125 14.816406 39.753906 14.484375L41.019531 12.585938C41.328125 12.125 41.203125 11.507813 40.746094 11.199219C40.628906 11.121094 40.503906 11.074219 40.375 11.046875 Z M 20.003906 14.046875C19.878906 14.074219 19.753906 14.121094 19.636719 14.195313C19.175781 14.5 19.050781 15.121094 19.355469 15.582031L20.613281 17.496094C20.839844 17.835938 20.835938 18.269531 20.609375 18.609375L19.363281 20.4375C19.050781 20.894531 19.171875 21.515625 19.625 21.828125C19.800781 21.945313 19.996094 22 20.1875 22C20.507813 22 20.824219 21.847656 21.015625 21.5625L22.261719 19.734375C22.949219 18.726563 22.957031 17.414063 22.285156 16.390625L21.023438 14.480469C20.796875 14.136719 20.390625 13.980469 20.003906 14.046875 Z M 9.570313 24C8.71875 24 7.902344 24.363281 7.335938 25C6.769531 25.632813 6.492188 26.480469 6.585938 27.328125L7.671875 37.140625C8.480469 44.460938 10.921875 51.660156 14.734375 57.957031L14.867188 58.175781C13.835938 58.492188 12.96875 59.210938 12.46875 60.210938L11.296875 62.550781C11.140625 62.863281 11.15625 63.230469 11.339844 63.527344C11.523438 63.820313 11.84375 64 12.1875 64L47.1875 64C47.535156 64 47.855469 63.820313 48.039063 63.527344C48.222656 63.230469 48.238281 62.863281 48.082031 62.550781L46.910156 60.210938C46.398438 59.183594 45.492188 58.449219 44.421875 58.148438L44.4375 58.117188C45.792969 55.8125 46.957031 53.390625 47.933594 50.890625C51.289063 50.285156 56.960938 49.003906 58.941406 47.023438C60.269531 45.695313 61 43.933594 61 42.054688C61 40.175781 60.269531 38.414063 58.941406 37.085938C56.910156 35.054688 53.929688 34.519531 51.371094 35.546875L52.128906 27.277344C52.207031 26.4375 51.925781 25.601563 51.359375 24.980469C50.792969 24.355469 49.984375 24 49.144531 24 Z M 9.570313 26L49.144531 26C49.429688 26 49.691406 26.117188 49.882813 26.328125C50.074219 26.535156 50.164063 26.808594 50.140625 27.09375L49.242188 36.8125C48.589844 43.925781 46.328125 50.945313 42.714844 57.105469L42.199219 57.984375L17.082031 57.972656L16.445313 56.921875C12.78125 50.871094 10.433594 43.953125 9.65625 36.921875L8.890625 29.980469C8.929688 29.984375 8.960938 30 9 30L39 30C39.554688 30 40 29.554688 40 29C40 28.445313 39.554688 28 39 28L9 28C8.886719 28 8.785156 28.03125 8.679688 28.0625L8.578125 27.109375C8.542969 26.824219 8.632813 26.546875 8.824219 26.332031C9.015625 26.117188 9.28125 26 9.570313 26 Z M 43 28C42.445313 28 42 28.445313 42 29C42 29.554688 42.445313 30 43 30L47 30C47.554688 30 48 29.554688 48 29C48 28.445313 47.554688 28 47 28 Z M 53.574219 37.042969C55 36.925781 56.449219 37.421875 57.527344 38.5C58.476563 39.445313 59 40.710938 59 42.054688C59 43.398438 58.476563 44.660156 57.527344 45.609375C56.292969 46.84375 52.386719 47.96875 48.71875 48.703125C49.90625 45.203125 50.714844 41.578125 51.125 37.917969C51.875 37.398438 52.71875 37.109375 53.574219 37.042969 Z M 17 50C16.445313 50 16 50.445313 16 51L16 53C16 53.554688 16.445313 54 17 54C17.554688 54 18 53.554688 18 53L18 51C18 50.445313 17.554688 50 17 50 Z M 22 50C21.445313 50 21 50.445313 21 51L21 53C21 53.554688 21.445313 54 22 54C22.554688 54 23 53.554688 23 53L23 51C23 50.445313 22.554688 50 22 50 Z M 27 50C26.445313 50 26 50.445313 26 51L26 53C26 53.554688 26.445313 54 27 54C27.554688 54 28 53.554688 28 53L28 51C28 50.445313 27.554688 50 27 50 Z M 32 50C31.445313 50 31 50.445313 31 51L31 53C31 53.554688 31.445313 54 32 54C32.554688 54 33 53.554688 33 53L33 51C33 50.445313 32.554688 50 32 50 Z M 37 50C36.445313 50 36 50.445313 36 51L36 53C36 53.554688 36.445313 54 37 54C37.554688 54 38 53.554688 38 53L38 51C38 50.445313 37.554688 50 37 50 Z M 42 50C41.445313 50 41 50.445313 41 51L41 53C41 53.554688 41.445313 54 42 54C42.554688 54 43 53.554688 43 53L43 51C43 50.445313 42.554688 50 42 50 Z M 16.046875 60L43.335938 60C44.097656 60 44.78125 60.425781 45.125 61.105469L45.570313 62L13.808594 62L14.253906 61.105469C14.597656 60.425781 15.28125 60 16.046875 60Z" fill="#474747" />
</svg>