<svg xmlns="http://www.w3.org/2000/svg" xmlns:xlink="http://www.w3.org/1999/xlink" viewBox="0 0 64 64" fill="#474747">
  <path d="M32 2C29.43 2.011 26.907453 2.701 24.689453 4C20.999453 4.14 18.42 6.7603906 18 10.900391C17.815 12.765391 17.859859 14.646 18.130859 16.5C18.184859 16.831 18.214703 17.165 18.220703 17.5C18.220703 17.687 18.190859 17.873547 18.130859 18.060547C17.982859 18.064547 17.833453 18.083141 17.689453 18.119141C16.039453 18.559141 15.349844 20.970469 16.089844 23.730469C16.412516 24.924839 16.944302 25.931694 17.578125 26.662109C14.871759 26.258226 11.712688 26 8 26C7.447 26 7 26.448 7 27L7 53C7 53.552 7.447 54 8 54C19.123999 54 25.126397 56.34219 28 58.007812C28.004295 59.107172 28.89965 60 30 60L34 60C35.103 60 36 59.103 36 58L36 57.980469C38.855316 56.315907 44.824303 54 56 54C56.553 54 57 53.552 57 53L57 27C57 26.448 56.553 26 56 26C52.283802 26 49.122066 26.257617 46.414062 26.662109C47.042154 25.929103 47.566961 24.914992 47.880859 23.730469C48.620859 20.980469 47.879297 18.569141 46.279297 18.119141C46.138297 18.083141 45.994609 18.064547 45.849609 18.060547C45.677609 16.881547 45.369688 15.726141 44.929688 14.619141L44.929688 14.509766C45.403687 14.566766 45.868547 14.687141 46.310547 14.869141C46.820547 15.081141 47.405188 14.840078 47.617188 14.330078C47.696188 14.140078 47.713922 13.930469 47.669922 13.730469C45.999922 6.4104687 40.56 2 33 2L32 2 z M 32 4L33 4C39.07 4 43.45 7.1000781 45.25 12.580078C44.577 12.449078 43.879609 12.625547 43.349609 13.060547C42.773609 13.687547 42.657547 14.609375 43.060547 15.359375C43.593547 16.653375 43.898937 18.031687 43.960938 19.429688C43.988937 19.981687 44.458766 20.406906 45.009766 20.378906C45.183766 20.369906 45.352047 20.315703 45.498047 20.220703C45.578047 20.160703 45.671531 20.118609 45.769531 20.099609C46.009531 20.179609 46.449219 21.4 45.949219 23.25C45.449219 25.1 44.50875 25.869141 44.21875 25.869141C43.75975 25.851141 43.34675 26.148844 43.21875 26.589844C43.1504 26.827269 43.070637 27.063728 42.992188 27.300781C39.239547 28.155944 36.671207 29.289328 34.986328 30.271484C34.693908 30.103885 34.3606 30 34 30L30 30C29.637842 30 29.303048 30.104492 29.009766 30.273438C27.317882 29.285831 24.74611 28.146992 20.960938 27.289062C20.881807 27.0592 20.789324 26.829918 20.720703 26.599609C20.597703 26.176609 20.212484 25.884859 19.771484 25.880859L19.751953 25.880859C19.461953 25.880859 18.511484 25.099766 18.021484 23.259766C17.531484 21.419766 17.971172 20.169375 18.201172 20.109375C18.300172 20.126375 18.391703 20.168469 18.470703 20.230469C18.938703 20.523469 19.556609 20.382062 19.849609 19.914062C19.940609 19.768062 19.992953 19.601688 20.001953 19.429688C20.025953 18.913688 20.082875 18.399625 20.171875 17.890625C20.223875 17.342625 20.196797 16.79 20.091797 16.25C19.852797 14.543 19.822953 12.813609 20.001953 11.099609C20.310953 7.9096094 22.19 6 25 6C25.216 6 25.426609 5.9307812 25.599609 5.8007812C27.522609 4.6137813 29.74 3.99 32 4 z M 26.171875 10.125C25.582197 10.178984 25.024687 10.493281 24.679688 11.019531L23.080078 13.449219C22.784078 13.915219 22.922672 14.534078 23.388672 14.830078C23.843672 15.119078 24.446 14.995781 24.75 14.550781L26.349609 12.119141L27.919922 12.880859C30.783922 14.270859 33.925375 14.995 37.109375 15L39.660156 15C40.212156 15 40.660156 14.552 40.660156 14C40.660156 13.448 40.212156 13 39.660156 13L37.109375 13C34.226375 12.996 31.382062 12.339078 28.789062 11.080078L27.230469 10.320312C26.891094 10.154563 26.525682 10.092609 26.171875 10.125 z M 55 28.005859L55 52.005859C45.220978 52.127557 39.334724 54.02463 36 55.716797L36 32C36 31.995296 35.998079 31.991025 35.998047 31.986328C38.763611 30.372248 44.452638 28.140438 55 28.005859 z M 9 28.007812C19.496657 28.143969 25.215002 30.396368 28 32.013672L28 55.728516C24.668276 54.033607 18.802665 52.129445 9 52.007812L9 28.007812 z M 12 32C11.447 32 11 32.448 11 33C11 33.552 11.447 34 12 34L14 34C14.553 34 15 33.552 15 33C15 32.448 14.553 32 14 32L12 32 z M 30 32L34 32L34.001953 58L30 58L30 32 z M 50 32C49.447 32 49 32.448 49 33C49 33.552 49.447 34 50 34L52 34C52.553 34 53 33.552 53 33C53 32.448 52.553 32 52 32L50 32 z M 12 37C11.447 37 11 37.448 11 38C11 38.552 11.447 39 12 39L14 39C14.553 39 15 38.552 15 38C15 37.448 14.553 37 14 37L12 37 z M 50 37C49.447 37 49 37.448 49 38C49 38.552 49.447 39 50 39L52 39C52.553 39 53 38.552 53 38C53 37.448 52.553 37 52 37L50 37 z M 12 42C11.447 42 11 42.448 11 43C11 43.552 11.447 44 12 44L14 44C14.553 44 15 43.552 15 43C15 42.448 14.553 42 14 42L12 42 z M 50 42C49.447 42 49 42.448 49 43C49 43.552 49.447 44 50 44L52 44C52.553 44 53 43.552 53 43C53 42.448 52.553 42 52 42L50 42 z M 12 47C11.447 47 11 47.448 11 48C11 48.552 11.447 49 12 49L14 49C14.553 49 15 48.552 15 48C15 47.448 14.553 47 14 47L12 47 z M 50 47C49.447 47 49 47.448 49 48C49 48.552 49.447 49 50 49L52 49C52.553 49 53 48.552 53 48C53 47.448 52.553 47 52 47L50 47 z" fill="#474747" />
</svg>