<svg xmlns="http://www.w3.org/2000/svg" xmlns:xlink="http://www.w3.org/1999/xlink" viewBox="0 0 50 50" fill="#474747">
  <path d="M5 10C4.449219 10 4 10.449219 4 11L4 39C4 39.550781 4.449219 40 5 40L45 40C45.550781 40 46 39.550781 46 39L46 11C46 10.449219 45.550781 10 45 10 Z M 6 12L44 12L44 38L6 38 Z M 28.90625 14C24.65625 14.65625 24.996094 18.960938 25 18.988281C24.230469 18.988281 23.542969 19.171875 23.003906 19.546875C22.464844 19.917969 22.125 20.4375 21.890625 20.949219C21.425781 21.972656 21.273438 23.046875 20.875 24.027344C20.867188 24.039063 20.863281 24.054688 20.859375 24.070313C20.421875 25.308594 19.839844 25.949219 19.222656 26.78125C18.609375 27.609375 18 28.707031 18 30.300781C18 32.363281 18.964844 33.941406 20.332031 34.824219C21.699219 35.703125 23.375 35.988281 25 35.988281C26.625 35.988281 28.300781 35.703125 29.667969 34.824219C31.035156 33.941406 32 32.363281 32 30.300781C32 28.707031 31.390625 27.609375 30.777344 26.78125C30.160156 25.949219 29.578125 25.308594 29.140625 24.070313C29.136719 24.054688 29.132813 24.039063 29.125 24.027344C28.730469 23.046875 28.574219 21.976563 28.109375 20.953125C27.875 20.4375 27.535156 19.917969 26.996094 19.546875C26.476563 19.183594 25.816406 19.007813 25.078125 18.996094C28.914063 18.941406 29.085938 15.121094 28.90625 14 Z M 25 20.988281C25.476563 20.988281 25.703125 21.082031 25.859375 21.1875C26.011719 21.296875 26.144531 21.464844 26.285156 21.777344C26.570313 22.398438 26.769531 23.523438 27.261719 24.746094C27.816406 26.3125 28.628906 27.246094 29.167969 27.96875C29.703125 28.695313 30 29.144531 30 30.300781C30 31.804688 29.464844 32.570313 28.582031 33.140625C27.699219 33.714844 26.375 33.988281 25 33.988281C23.625 33.988281 22.300781 33.714844 21.417969 33.140625C20.535156 32.570313 20 31.804688 20 30.300781C20 29.144531 20.296875 28.695313 20.832031 27.96875C21.371094 27.246094 22.183594 26.3125 22.738281 24.746094C23.230469 23.523438 23.429688 22.398438 23.714844 21.777344C23.855469 21.464844 23.988281 21.296875 24.140625 21.1875C24.296875 21.082031 24.523438 20.988281 25 20.988281Z" fill="#474747" />
</svg>