<svg xmlns="http://www.w3.org/2000/svg" xmlns:xlink="http://www.w3.org/1999/xlink" viewBox="0 0 50 50" fill="#474747">
  <path d="M5 4 A 1.0001 1.0001 0 0 0 4 5L4 15 A 1.0001 1.0001 0 0 0 5 16L45 16 A 1.0001 1.0001 0 0 0 46 15L46 5 A 1.0001 1.0001 0 0 0 45 4L5 4 z M 6 6L44 6L44 14L6 14L6 6 z M 10 9 A 1 1 0 0 0 9 10 A 1 1 0 0 0 10 11 A 1 1 0 0 0 11 10 A 1 1 0 0 0 10 9 z M 14 9 A 1 1 0 0 0 13 10 A 1 1 0 0 0 14 11 A 1 1 0 0 0 15 10 A 1 1 0 0 0 14 9 z M 18 9 A 1 1 0 0 0 17 10 A 1 1 0 0 0 18 11 A 1 1 0 0 0 19 10 A 1 1 0 0 0 18 9 z M 4 19L4 45 A 1.0001 1.0001 0 0 0 5 46L45 46 A 1.0001 1.0001 0 0 0 46 45L46 19L44 19L44 44L6 44L6 19L4 19 z M 10 19 A 1.0001 1.0001 0 0 0 9 20L9 40 A 1.0001 1.0001 0 0 0 10 41L23 41 A 1.0001 1.0001 0 0 0 24 40L24 20 A 1.0001 1.0001 0 0 0 23 19L10 19 z M 27 19L27 21L41 21L41 19L27 19 z M 11 21L22 21L22 39L11 39L11 21 z M 27 24L27 26L41 26L41 24L27 24 z M 27 29L27 31L41 31L41 29L27 29 z M 27 34L27 36L41 36L41 34L27 34 z M 27 39L27 41L41 41L41 39L27 39 z" fill="#474747" />
</svg>