<svg xmlns="http://www.w3.org/2000/svg" xmlns:xlink="http://www.w3.org/1999/xlink" viewBox="0 0 64 64" fill="#474747">
  <path d="M21.144531 6C17.078125 6 13.5 8.746094 12.449219 12.683594L10.5 20L5 20C3.347656 20 2 21.347656 2 23L2 25C2 26.652344 3.347656 28 5 28L5.472656 28C4.515625 29.84375 4 31.914063 4 34L4 45C4 46.628906 4.792969 48.0625 6 48.972656L6 54C6 54.730469 6.210938 55.410156 6.554688 56L1 56C0.445313 56 0 56.449219 0 57C0 57.550781 0.445313 58 1 58L63 58C63.554688 58 64 57.550781 64 57C64 56.449219 63.554688 56 63 56L57.441406 56C57.789063 55.410156 58 54.730469 58 54L58 48.972656C59.207031 48.0625 60 46.625 60 45L60 34C60 31.914063 59.484375 29.84375 58.527344 28L59 28C60.652344 28 62 26.652344 62 25L62 23C62 21.347656 60.652344 20 59 20L53.5 20L51.546875 12.683594C50.5 8.746094 46.921875 6 42.855469 6 Z M 21.144531 8L42.855469 8C46.019531 8 48.800781 10.136719 49.617188 13.195313L51.636719 20.761719C51.933594 21.878906 52.4375 22.914063 53.128906 23.84375L53.726563 24.636719L51.976563 25.488281C51.296875 25.824219 50.535156 26 49.777344 26L48.910156 26C48.433594 23.167969 45.96875 21 43 21C40.03125 21 37.570313 23.167969 37.089844 26L14.316406 26C13.554688 26 12.789063 25.820313 12.101563 25.480469L10.304688 24.59375L10.871094 23.84375C11.5625 22.917969 12.066406 21.878906 12.363281 20.761719L14.382813 13.195313C15.199219 10.136719 17.980469 8 21.144531 8 Z M 29.917969 12C29.363281 12 28.917969 12.449219 28.917969 13C28.917969 13.550781 29.363281 14 29.917969 14L34.167969 14C34.722656 14 35.167969 13.550781 35.167969 13C35.167969 12.449219 34.722656 12 34.167969 12 Z M 5 22L9.695313 22C9.5625 22.21875 9.425781 22.433594 9.269531 22.640625L6.75 26L5 26C4.449219 26 4 25.550781 4 25L4 23C4 22.449219 4.449219 22 5 22 Z M 54.308594 22L59 22C59.550781 22 60 22.449219 60 23L60 25C60 25.550781 59.550781 26 59 26L57.25 26L54.730469 22.640625C54.574219 22.433594 54.4375 22.21875 54.308594 22 Z M 43 23C44.859375 23 46.410156 24.28125 46.859375 26L39.140625 26C39.589844 24.28125 41.140625 23 43 23 Z M 9.085938 26.21875L11.21875 27.277344C12.175781 27.75 13.25 28 14.316406 28L49.777344 28C50.839844 28 51.902344 27.753906 52.855469 27.285156L54.949219 26.265625L55.800781 27.402344C56.855469 28.808594 57.558594 30.464844 57.847656 32.199219C57.789063 32.203125 57.730469 32.195313 57.671875 32.207031L49.34375 33.59375C47.40625 33.917969 46 35.578125 46 37.542969L46 38C46 39.101563 46.898438 40 48 40L58 40L58 45C58 46.652344 56.652344 48 55 48L9 48C7.347656 48 6 46.652344 6 45L6 40L16 40C17.101563 40 18 39.101563 18 38L18 37.542969C18 35.578125 16.59375 33.917969 14.65625 33.59375L6.328125 32.207031C6.269531 32.195313 6.210938 32.203125 6.152344 32.199219C6.441406 30.464844 7.144531 28.808594 8.199219 27.402344 Z M 6 34.179688L14.328125 35.566406C15.296875 35.730469 16 36.5625 16 37.542969L16 38L6 38 Z M 58 34.183594L58 38L48 38L48 37.542969C48 36.5625 48.703125 35.730469 49.671875 35.566406 Z M 22 36C21.445313 36 21 36.449219 21 37L21 39C21 39.550781 21.445313 40 22 40C22.554688 40 23 39.550781 23 39L23 37C23 36.449219 22.554688 36 22 36 Z M 27 36C26.445313 36 26 36.449219 26 37L26 39C26 39.550781 26.445313 40 27 40C27.554688 40 28 39.550781 28 39L28 37C28 36.449219 27.554688 36 27 36 Z M 32 36C31.445313 36 31 36.449219 31 37L31 39C31 39.550781 31.445313 40 32 40C32.554688 40 33 39.550781 33 39L33 37C33 36.449219 32.554688 36 32 36 Z M 37 36C36.445313 36 36 36.449219 36 37L36 39C36 39.550781 36.445313 40 37 40C37.554688 40 38 39.550781 38 39L38 37C38 36.449219 37.554688 36 37 36 Z M 42 36C41.445313 36 41 36.449219 41 37L41 39C41 39.550781 41.445313 40 42 40C42.554688 40 43 39.550781 43 39L43 37C43 36.449219 42.554688 36 42 36 Z M 8.917969 42C8.363281 42 7.917969 42.449219 7.917969 43C7.917969 43.550781 8.363281 44 8.917969 44L13.167969 44C13.722656 44 14.167969 43.550781 14.167969 43C14.167969 42.449219 13.722656 42 13.167969 42 Z M 16.917969 42C16.363281 42 15.917969 42.449219 15.917969 43C15.917969 43.550781 16.363281 44 16.917969 44L47.167969 44C47.722656 44 48.167969 43.550781 48.167969 43C48.167969 42.449219 47.722656 42 47.167969 42 Z M 50.917969 42C50.363281 42 49.917969 42.449219 49.917969 43C49.917969 43.550781 50.363281 44 50.917969 44L55.167969 44C55.722656 44 56.167969 43.550781 56.167969 43C56.167969 42.449219 55.722656 42 55.167969 42 Z M 8 50L14 50L14 54C14 55.101563 13.101563 56 12 56L10 56C8.898438 56 8 55.101563 8 54 Z M 16 50L48 50L48 54C48 54.730469 48.210938 55.410156 48.558594 56L15.441406 56C15.789063 55.410156 16 54.730469 16 54 Z M 50 50L56 50L56 54C56 55.101563 55.101563 56 54 56L52 56C50.898438 56 50 55.101563 50 54Z" fill="#474747" />
</svg>