<svg xmlns="http://www.w3.org/2000/svg" xmlns:xlink="http://www.w3.org/1999/xlink" viewBox="0 0 50 50" fill="#474747">
  <path d="M12 3C7.042969 3 3 7.042969 3 12C3 16.957031 7.042969 21 12 21C16.957031 21 21 16.957031 21 12C21 7.042969 16.957031 3 12 3 Z M 38 3C35.6875 3 33.566406 3.871094 31.96875 5.3125C31.648438 5.417969 31.402344 5.675781 31.3125 6C29.878906 7.59375 29 9.695313 29 12C29 16.957031 33.042969 21 38 21C38.644531 21 39.269531 20.910156 39.875 20.78125C39.917969 20.773438 39.960938 20.761719 40 20.75C41.46875 20.414063 42.804688 19.742188 43.90625 18.78125C44.34375 18.71875 44.6875 18.375 44.75 17.9375C45.695313 16.863281 46.371094 15.5625 46.71875 14.125C46.730469 14.09375 46.742188 14.0625 46.75 14.03125C46.902344 13.378906 47 12.699219 47 12C47 7.042969 42.957031 3 38 3 Z M 12 5C15.878906 5 19 8.121094 19 12C19 15.878906 15.878906 19 12 19C8.121094 19 5 15.878906 5 12C5 8.121094 8.121094 5 12 5 Z M 38.4375 5.03125C41.964844 5.246094 44.753906 8.035156 44.96875 11.5625 Z M 35.875 5.3125L44.6875 14.09375C44.449219 14.863281 44.066406 15.558594 43.59375 16.1875L33.8125 6.40625C34.433594 5.941406 35.113281 5.550781 35.875 5.3125 Z M 32.40625 7.8125L42.1875 17.59375C41.558594 18.066406 40.863281 18.449219 40.09375 18.6875L31.3125 9.90625C31.550781 9.136719 31.933594 8.441406 32.40625 7.8125 Z M 31.03125 12.4375L37.5625 18.96875C34.035156 18.753906 31.246094 15.964844 31.03125 12.4375 Z M 12 29C7.042969 29 3 33.042969 3 38C3 42.957031 7.042969 47 12 47C16.957031 47 21 42.957031 21 38C21 33.042969 16.957031 29 12 29 Z M 38 29C33.042969 29 29 33.042969 29 38C29 42.957031 33.042969 47 38 47C42.957031 47 47 42.957031 47 38C47 33.042969 42.957031 29 38 29 Z M 12 31C12.777344 31 13.519531 31.144531 14.21875 31.375C14.082031 31.546875 14 31.761719 14 32C14 32.550781 14.449219 33 15 33C15.472656 33 15.832031 32.65625 15.9375 32.21875C16.65625 32.710938 17.289063 33.34375 17.78125 34.0625C17.34375 34.167969 17 34.527344 17 35C17 35.550781 17.449219 36 18 36C18.238281 36 18.453125 35.917969 18.625 35.78125C18.855469 36.480469 19 37.222656 19 38C19 38.777344 18.855469 39.519531 18.625 40.21875C18.453125 40.082031 18.238281 40 18 40C17.449219 40 17 40.449219 17 41C17 41.472656 17.34375 41.832031 17.78125 41.9375C17.289063 42.65625 16.65625 43.289063 15.9375 43.78125C15.832031 43.34375 15.472656 43 15 43C14.449219 43 14 43.449219 14 44C14 44.238281 14.082031 44.453125 14.21875 44.625C13.519531 44.855469 12.777344 45 12 45C11.222656 45 10.480469 44.855469 9.78125 44.625C9.917969 44.453125 10 44.238281 10 44C10 43.449219 9.550781 43 9 43C8.527344 43 8.167969 43.34375 8.0625 43.78125C7.34375 43.289063 6.710938 42.65625 6.21875 41.9375C6.65625 41.832031 7 41.472656 7 41C7 40.449219 6.550781 40 6 40C5.761719 40 5.546875 40.082031 5.375 40.21875C5.144531 39.519531 5 38.777344 5 38C5 37.222656 5.144531 36.480469 5.375 35.78125C5.546875 35.917969 5.761719 36 6 36C6.550781 36 7 35.550781 7 35C7 34.527344 6.65625 34.167969 6.21875 34.0625C6.710938 33.34375 7.34375 32.710938 8.0625 32.21875C8.167969 32.65625 8.527344 33 9 33C9.550781 33 10 32.550781 10 32C10 31.761719 9.917969 31.546875 9.78125 31.375C10.480469 31.144531 11.222656 31 12 31 Z M 38 31C38.5625 31 39 31.4375 39 32C39 32.5625 38.5625 33 38 33C37.4375 33 37 32.5625 37 32C37 31.4375 37.4375 31 38 31 Z M 35.03125 31.6875C35.019531 31.792969 35 31.890625 35 32C35 33.644531 36.355469 35 38 35C39.644531 35 41 33.644531 41 32C41 31.890625 40.980469 31.792969 40.96875 31.6875C42.441406 32.378906 43.621094 33.558594 44.3125 35.03125C44.207031 35.019531 44.109375 35 44 35C42.355469 35 41 36.355469 41 38C41 39.644531 42.355469 41 44 41C44.109375 41 44.207031 40.980469 44.3125 40.96875C43.621094 42.441406 42.441406 43.621094 40.96875 44.3125C40.980469 44.207031 41 44.109375 41 44C41 42.355469 39.644531 41 38 41C36.355469 41 35 42.355469 35 44C35 44.109375 35.019531 44.207031 35.03125 44.3125C33.558594 43.621094 32.378906 42.441406 31.6875 40.96875C31.792969 40.980469 31.890625 41 32 41C33.644531 41 35 39.644531 35 38C35 36.355469 33.644531 35 32 35C31.890625 35 31.792969 35.019531 31.6875 35.03125C32.378906 33.558594 33.558594 32.378906 35.03125 31.6875 Z M 35 38C35 39.644531 36.355469 41 38 41C39.644531 41 41 39.644531 41 38C41 36.355469 39.644531 35 38 35C36.355469 35 35 36.355469 35 38 Z M 12 34C11.449219 34 11 34.449219 11 35C11 35.550781 11.449219 36 12 36C12.550781 36 13 35.550781 13 35C13 34.449219 12.550781 34 12 34 Z M 9 37C8.449219 37 8 37.449219 8 38C8 38.550781 8.449219 39 9 39C9.550781 39 10 38.550781 10 38C10 37.449219 9.550781 37 9 37 Z M 15 37C14.449219 37 14 37.449219 14 38C14 38.550781 14.449219 39 15 39C15.550781 39 16 38.550781 16 38C16 37.449219 15.550781 37 15 37 Z M 32 37C32.5625 37 33 37.4375 33 38C33 38.5625 32.5625 39 32 39C31.4375 39 31 38.5625 31 38C31 37.4375 31.4375 37 32 37 Z M 38 37C38.5625 37 39 37.4375 39 38C39 38.5625 38.5625 39 38 39C37.4375 39 37 38.5625 37 38C37 37.4375 37.4375 37 38 37 Z M 44 37C44.5625 37 45 37.4375 45 38C45 38.5625 44.5625 39 44 39C43.4375 39 43 38.5625 43 38C43 37.4375 43.4375 37 44 37 Z M 12 40C11.449219 40 11 40.449219 11 41C11 41.550781 11.449219 42 12 42C12.550781 42 13 41.550781 13 41C13 40.449219 12.550781 40 12 40 Z M 38 43C38.5625 43 39 43.4375 39 44C39 44.5625 38.5625 45 38 45C37.4375 45 37 44.5625 37 44C37 43.4375 37.4375 43 38 43Z" fill="#474747" />
</svg>