<svg xmlns="http://www.w3.org/2000/svg" xmlns:xlink="http://www.w3.org/1999/xlink" viewBox="0 0 50 50" fill="#474747">
  <path d="M4.8125 4C4.335938 4.089844 3.992188 4.511719 4 5L4 15C4 15.550781 4.449219 16 5 16L45 16C45.550781 16 46 15.550781 46 15L46 5C46 4.449219 45.550781 4 45 4L5 4C4.96875 4 4.9375 4 4.90625 4C4.875 4 4.84375 4 4.8125 4 Z M 6 6L44 6L44 14L6 14 Z M 4.8125 18C4.335938 18.089844 3.992188 18.511719 4 19L4 45C4 45.550781 4.449219 46 5 46L29 46C29.550781 46 30 45.550781 30 45L30 19C30 18.449219 29.550781 18 29 18L5 18C4.96875 18 4.9375 18 4.90625 18C4.875 18 4.84375 18 4.8125 18 Z M 32.8125 18C32.335938 18.089844 31.992188 18.511719 32 19L32 25C32 25.550781 32.449219 26 33 26L45 26C45.550781 26 46 25.550781 46 25L46 19C46 18.449219 45.550781 18 45 18L33 18C32.96875 18 32.9375 18 32.90625 18C32.875 18 32.84375 18 32.8125 18 Z M 6 20L28 20L28 44L6 44 Z M 34 20L44 20L44 24L34 24 Z M 32.8125 28C32.335938 28.089844 31.992188 28.511719 32 29L32 35C32 35.550781 32.449219 36 33 36L45 36C45.550781 36 46 35.550781 46 35L46 29C46 28.449219 45.550781 28 45 28L33 28C32.96875 28 32.9375 28 32.90625 28C32.875 28 32.84375 28 32.8125 28 Z M 34 30L44 30L44 34L34 34 Z M 32.8125 38C32.335938 38.089844 31.992188 38.511719 32 39L32 45C32 45.550781 32.449219 46 33 46L45 46C45.550781 46 46 45.550781 46 45L46 39C46 38.449219 45.550781 38 45 38L33 38C32.96875 38 32.9375 38 32.90625 38C32.875 38 32.84375 38 32.8125 38 Z M 34 40L44 40L44 44L34 44Z" fill="#474747" />
</svg>