<?xml version="1.0" standalone="no"?>
<!DOCTYPE svg PUBLIC "-//W3C//DTD SVG 20010904//EN"
 "http://www.w3.org/TR/2001/REC-SVG-20010904/DTD/svg10.dtd">
<svg version="1.0" xmlns="http://www.w3.org/2000/svg"
 width="180.000000pt" height="180.000000pt" viewBox="0 0 180.000000 180.000000"
 preserveAspectRatio="xMidYMid meet">
<metadata>
Created by potrace 1.14, written by Peter Selinger 2001-2017
</metadata>
<g transform="translate(0.000000,180.000000) scale(0.100000,-0.100000)"
fill="#000000" stroke="none">
<path d="M168 1784 c-62 -19 -130 -86 -151 -148 -15 -42 -17 -126 -17 -730 0
-775 -2 -754 75 -831 76 -77 56 -75 825 -75 740 0 739 0 810 58 19 16 46 51
60 78 l25 49 3 694 c3 791 5 769 -73 846 -76 77 -55 75 -829 74 -562 0 -689
-3 -728 -15z"/>
</g>
</svg>
